<svg width="41" height="41" viewBox="0 0 41 41" fill="none" xmlns="http://www.w3.org/2000/svg">
<circle cx="20.5" cy="20.5" r="20.1985" stroke="#032E4E" stroke-width="0.602941"/>
<path fill-rule="evenodd" clip-rule="evenodd" d="M20.4996 39.392C30.9334 39.392 39.3917 30.9337 39.3917 20.4998C39.3917 10.066 30.9334 1.60767 20.4996 1.60767C10.0657 1.60767 1.60742 10.066 1.60742 20.4998C1.60742 30.9337 10.0657 39.392 20.4996 39.392ZM21.6791 17.4345C21.3588 16.4669 20.8951 15.6494 20.2878 14.9821C19.6939 14.3348 18.9698 13.8377 18.1157 13.4907C17.2682 13.137 16.3106 12.9602 15.2429 12.9602C14.2152 12.9602 13.2643 13.1337 12.3901 13.4807C11.5226 13.8277 10.7952 14.3282 10.208 14.9821C9.59403 15.6695 9.1269 16.4969 8.80659 17.4646C8.48628 18.4255 8.32612 19.5132 8.32612 20.7277C8.32612 21.9623 8.48628 23.06 8.80659 24.0209C9.13358 24.9819 9.59736 25.7927 10.1979 26.4533C10.7985 27.114 11.5259 27.6178 12.3801 27.9648C13.2409 28.3118 14.1952 28.4853 15.2429 28.4853C16.3173 28.4853 17.2715 28.3151 18.1057 27.9748C18.9465 27.6345 19.6739 27.1273 20.2878 26.4533C20.8817 25.806 21.3422 24.9986 21.6691 24.031C22.0028 23.0567 22.1696 21.9556 22.1696 20.7277C22.1696 19.4999 22.0061 18.4021 21.6791 17.4345ZM18.8063 16.2534C19.6739 17.3011 20.1076 18.7925 20.1076 20.7277C20.1076 22.683 19.6672 24.1811 18.7863 25.2221C17.9121 26.2565 16.7343 26.7736 15.2529 26.7736C13.7714 26.7736 12.5903 26.2565 11.7094 25.2221C10.8286 24.1811 10.3881 22.683 10.3881 20.7277C10.3881 18.7925 10.8186 17.3011 11.6794 16.2534C12.5469 15.199 13.7381 14.6718 15.2529 14.6718C16.7543 14.6718 17.9388 15.199 18.8063 16.2534ZM30.1919 27.3242C30.9926 26.6168 31.393 25.6092 31.393 24.3012V13.2705H26.258V14.852H29.4111V23.5505C29.4111 24.0576 29.3844 24.5048 29.331 24.8918C29.2843 25.2788 29.1709 25.6058 28.9907 25.8728C28.8172 26.133 28.5469 26.3332 28.1799 26.4733C27.8195 26.6135 27.3324 26.6835 26.7185 26.6835C26.2981 26.6835 25.8877 26.6335 25.4873 26.5334C25.0869 26.4333 24.7499 26.3365 24.4763 26.2431H24.3662V28.0949C24.7265 28.175 25.1736 28.2417 25.7075 28.2951C26.2413 28.3552 26.6684 28.3852 26.9887 28.3852C28.33 28.3852 29.3977 28.0315 30.1919 27.3242Z" fill="#032E4E"/>
</svg>
