<svg width="70" height="70" viewBox="0 0 70 70" fill="none" xmlns="http://www.w3.org/2000/svg">
<circle cx="35" cy="35" r="34.4853" stroke="white" stroke-width="1.02941"/>
<path fill-rule="evenodd" clip-rule="evenodd" d="M34.9995 67.2544C52.8134 67.2544 67.2544 52.8134 67.2544 34.9995C67.2544 17.1856 52.8134 2.74463 34.9995 2.74463C17.1856 2.74463 2.74463 17.1856 2.74463 34.9995C2.74463 52.8134 17.1856 67.2544 34.9995 67.2544ZM37.0132 28.9126C36.4663 27.2606 35.6745 25.8649 34.6377 24.7256C33.6237 23.6204 32.3875 22.7716 30.9292 22.1792C29.4823 21.5754 27.8473 21.2734 26.0244 21.2734C24.2699 21.2734 22.6463 21.5697 21.1538 22.1621C19.6727 22.7546 18.4308 23.609 17.4282 24.7256C16.38 25.8991 15.5825 27.3118 15.0356 28.9639C14.4888 30.6045 14.2153 32.4616 14.2153 34.5352C14.2153 36.6429 14.4888 38.5171 15.0356 40.1577C15.5939 41.7983 16.3857 43.1826 17.4111 44.3105C18.4365 45.4385 19.6784 46.2987 21.1367 46.8911C22.6064 47.4836 24.2357 47.7798 26.0244 47.7798C27.8587 47.7798 29.488 47.4893 30.9121 46.9082C32.3477 46.3271 33.5895 45.4613 34.6377 44.3105C35.6517 43.2054 36.4378 41.8268 36.9961 40.1748C37.5658 38.5114 37.8506 36.6315 37.8506 34.5352C37.8506 32.4388 37.5715 30.5646 37.0132 28.9126ZM32.1084 26.896C33.5895 28.6847 34.3301 31.2311 34.3301 34.5352C34.3301 37.8734 33.5781 40.4312 32.0742 42.2085C30.5817 43.9744 28.5708 44.8574 26.0415 44.8574C23.5122 44.8574 21.4956 43.9744 19.9917 42.2085C18.4878 40.4312 17.7358 37.8734 17.7358 34.5352C17.7358 31.2311 18.4707 28.6847 19.9404 26.896C21.4215 25.0959 23.4552 24.1958 26.0415 24.1958C28.605 24.1958 30.6273 25.0959 32.1084 26.896ZM51.5471 45.7974C52.9143 44.5897 53.5979 42.8693 53.5979 40.6362V21.8032H44.8308V24.5034H50.2141V39.3545C50.2141 40.2204 50.1685 40.9837 50.0773 41.6445C49.9976 42.3053 49.8039 42.8636 49.4963 43.3193C49.2001 43.7637 48.7386 44.1055 48.112 44.3447C47.4968 44.584 46.6651 44.7036 45.6169 44.7036C44.8991 44.7036 44.1984 44.6182 43.5148 44.4473C42.8312 44.2764 42.2559 44.1112 41.7888 43.9517H41.6008V47.1133C42.216 47.25 42.9794 47.3639 43.8908 47.4551C44.8023 47.5576 45.5314 47.6089 46.0783 47.6089C48.3684 47.6089 50.1913 47.005 51.5471 45.7974Z" fill="white"/>
</svg>
