<svg width="22" height="22" viewBox="0 0 22 22" fill="none" xmlns="http://www.w3.org/2000/svg">
<path d="M11 0.000976562C4.93463 0.000976562 0 4.9356 0 11.001C0 17.0659 4.93463 22.001 11 22.001C17.0649 22.001 22 17.0659 22 11.001C22 4.9356 17.0658 0.000976562 11 0.000976562ZM15.9072 8.48337C15.912 8.59237 15.9147 8.70226 15.9147 8.81214C15.9147 12.1579 13.3687 16.0145 8.71059 16.0145C7.28075 16.0145 5.94973 15.5966 4.82961 14.878C5.02767 14.9014 5.22928 14.9134 5.43354 14.9134C6.62012 14.9134 7.71143 14.5084 8.5781 13.8296C7.47039 13.8092 6.53504 13.0773 6.21292 12.071C6.36712 12.1003 6.52618 12.1167 6.68879 12.1167C6.91964 12.1167 7.14384 12.0865 7.35608 12.0285C6.19786 11.7963 5.32543 10.7732 5.32543 9.54589C5.32543 9.53526 5.32543 9.52418 5.32587 9.51399C5.66704 9.70318 6.0574 9.8175 6.47213 9.83035C5.79332 9.37707 5.34625 8.60168 5.34625 7.72349C5.34625 7.25913 5.47076 6.82403 5.68875 6.45006C6.93692 7.98225 8.80319 8.98982 10.907 9.09616C10.8635 8.91051 10.8418 8.71777 10.8418 8.51882C10.8418 7.12089 11.9752 5.98704 13.3732 5.98704C14.1016 5.98704 14.7587 6.29454 15.2213 6.78636C15.7986 6.67293 16.3392 6.46291 16.8297 6.17181C16.6391 6.76332 16.239 7.25913 15.7149 7.57284C16.2275 7.51169 16.7167 7.37611 17.1691 7.1745C16.8314 7.68139 16.4021 8.12758 15.9072 8.48337Z" fill="white"/>
</svg>
